<svg width="742" height="50" viewBox="0 0 742 50" xmlns="http://www.w3.org/2000/svg">
    <title>The Daily Cascade</title>
    <g fill="none" fill-rule="evenodd">
        <path d="M34.765 4.74l1.61 8.96h3.99l-.49-12.53h-38.5L.815 13.7h4.06l1.54-8.96h10.71c.14 6.02.14 12.11.14 18.13v3.43c0 6.09 0 12.18-.14 18.06l-7.14.77V48h21.21v-2.87l-7.14-.77c-.14-6.02-.14-12.04-.14-18.06v-3.43c0-6.09 0-12.18.14-18.13h10.71zm60.32-.7V1.17h-19.74v2.87l6.44.77c.14 5.81.14 11.69.14 17.57h-22.82c0-5.95 0-11.83.14-17.57l6.51-.77V1.17h-19.81v2.87l6.44.77c.14 6.02.14 12.04.14 18.06v3.43c0 6.09 0 12.18-.14 18.06l-6.44.77V48h19.81v-2.87l-6.51-.77c-.14-5.81-.14-11.83-.14-18.69h22.82c0 6.93 0 12.95-.14 18.69l-6.44.77V48h19.74v-2.87l-6.44-.77c-.14-6.02-.14-12.04-.14-18.06v-3.43c0-6.09 0-12.18.14-18.06l6.44-.77zm40.02 31.5l-1.54 8.96h-17.92c-.14-6.02-.14-12.11-.14-18.76h10.5l.91 6.58h3.15V15.73h-3.15l-.98 6.72h-10.43c0-5.95 0-11.9.14-17.71h16.52l1.54 8.89h3.99l-.49-12.46h-34.86v2.87l6.44.77c.14 6.02.14 12.04.14 18.06v3.43c0 6.09 0 12.18-.14 18.06l-6.44.77V48h36.26l.49-12.46h-3.99zm41.33 9.17h6.23c9.66 0 16.1-7 16.1-20.09 0-13.16-6.44-20.16-16.17-20.16h-6.16c-.14 6.02-.14 12.18-.14 18.41v2.59c0 6.86 0 13.09.14 19.25zm-13.3-43.54h20.72c12.88 0 22.54 8.26 22.54 23.38 0 15.19-10.78 23.45-23.94 23.45h-19.32v-2.87l6.44-.77c.14-5.95.14-12.11.14-18.9v-2.59c0-6.02 0-12.04-.14-18.06l-6.44-.77V1.17zm58.15 28.28h13.86l-6.86-20.23-7 20.23zm25.83 15.05l5.25.63V48h-19.04v-2.87l6.86-.84-3.92-11.55h-16.1l-3.92 11.48 6.79.91V48h-16.1v-2.87l5.95-.91 14.98-43.05h4.2l15.05 43.33zm29.24-40.46V1.17h-19.81v2.87l6.44.77c.14 6.02.14 12.04.14 18.06v3.43c0 6.09 0 12.18-.14 18.06l-6.44.77V48h19.81v-2.87l-6.51-.77c-.14-6.02-.14-12.04-.14-18.06v-3.43c0-6.09 0-12.18.14-18.06l6.51-.77zm38.48 30.8h4.34l-.7 13.16h-34.93v-2.87l6.44-.77c.14-6.02.14-12.04.14-18.06v-3.43c0-6.09 0-12.18-.14-18.06l-6.44-.77V1.17h19.81v2.87l-6.51.77c-.14 6.02-.14 12.04-.14 18.06v3.43c0 6.16 0 12.25.14 18.2h15.96l2.03-9.66zm38.2-29.89l-11.9 24.5v2.17c0 2.94 0 7.7.14 12.74l7.14.77V48h-21.14v-2.87l7.14-.77c.14-4.97.14-9.73.14-12.74V29.8l-12.39-25.13-5.53-.63V1.17h19.74v2.87l-6.65.77 9.73 21.14 10.01-21.07-6.3-.84V1.17h15.96v2.87l-6.09.91zm114.56 30.59l-1.4 8.12c-2.8 1.33-5.67 1.89-8.33 1.89-9.59 0-16.45-7.35-16.45-20.93 0-13.65 7.56-20.93 16.94-20.93 2.45 0 4.76.49 7.14 1.68l1.4 8.33h4.41l-.28-10.22c-4.76-2.73-9.66-3.36-13.44-3.36-13.72 0-23.73 10.29-23.73 24.5 0 14.35 9.52 24.43 23.73 24.43 4.9 0 9.73-.98 14.14-3.36l.28-10.15h-4.41zm22.94-6.09h13.86l-6.86-20.23-7 20.23zm25.83 15.05l5.25.63V48h-19.04v-2.87l6.86-.84-3.92-11.55h-16.1l-3.92 11.48 6.79.91V48h-16.1v-2.87l5.95-.91 14.98-43.05h4.2l15.05 43.33zm24.55-23.94c-5.11-1.96-7.98-4.27-7.98-8.75 0-5.39 4.13-8.12 9.52-8.12 2.1 0 3.85.42 5.67 1.33l1.47 7.98h4.34l.42-9.17c-3.01-2.24-6.79-3.71-11.55-3.71-9.03 0-15.75 5.11-15.75 13.23 0 7.07 4.9 11.13 12.11 14l2.73 1.05c6.02 2.31 8.68 4.2 8.68 8.54 0 5.46-4.34 8.61-10.92 8.61-3.01 0-5.11-.63-7.35-1.89l-1.4-8.12h-4.27l-.42 9.8c3.22 2.03 8.4 3.71 13.65 3.71 9.73 0 16.66-5.18 16.66-13.51 0-6.37-3.5-10.36-12.81-13.93l-2.8-1.05zm56.47 14.98l-1.4 8.12c-2.8 1.33-5.67 1.89-8.33 1.89-9.59 0-16.45-7.35-16.45-20.93 0-13.65 7.56-20.93 16.94-20.93 2.45 0 4.76.49 7.14 1.68l1.4 8.33h4.41l-.28-10.22c-4.76-2.73-9.66-3.36-13.44-3.36-13.72 0-23.73 10.29-23.73 24.5 0 14.35 9.52 24.43 23.73 24.43 4.9 0 9.73-.98 14.14-3.36l.28-10.15h-4.41zm22.94-6.09h13.86l-6.86-20.23-7 20.23zm25.83 15.05l5.25.63V48h-19.04v-2.87l6.86-.84-3.92-11.55h-16.1l-3.92 11.48 6.79.91V48h-16.1v-2.87l5.95-.91 14.98-43.05h4.2l15.05 43.33zm22.73.21h6.23c9.66 0 16.1-7 16.1-20.09 0-13.16-6.44-20.16-16.17-20.16h-6.16c-.14 6.02-.14 12.18-.14 18.41v2.59c0 6.86 0 13.09.14 19.25zm-13.3-43.54h20.72c12.88 0 22.54 8.26 22.54 23.38 0 15.19-10.78 23.45-23.94 23.45h-19.32v-2.87l6.44-.77c.14-5.95.14-12.11.14-18.9v-2.59c0-6.02 0-12.04-.14-18.06l-6.44-.77V1.17zm81.46 34.37l-1.54 8.96h-17.92c-.14-6.02-.14-12.11-.14-18.76h10.5l.91 6.58h3.15V15.73h-3.15l-.98 6.72h-10.43c0-5.95 0-11.9.14-17.71h16.52l1.54 8.89h3.99l-.49-12.46h-34.86v2.87l6.44.77c.14 6.02.14 12.04.14 18.06v3.43c0 6.09 0 12.18-.14 18.06l-6.44.77V48h36.26l.49-12.46h-3.99z" fill="#1C0000"/>
        <circle stroke="#979797" fill="#D8D8D8" cx="391.5" cy="24.5" r="23.5"/>
        <circle stroke="#979797" fill="#D8D8D8" cx="400.5" cy="24.5" r="23.5"/>
    </g>
</svg>

